<mxfile host="app.diagrams.net" modified="2023-04-27T04:13:29.321Z" agent="Mozilla/5.0 (Windows NT 10.0; Win64; x64) AppleWebKit/537.36 (KHTML, like Gecko) Chrome/112.0.0.0 Safari/537.36" version="21.2.3" etag="2rPwXnhZewQ5E_DJBgPC" type="github">
  <diagram name="Page-1" id="2ZwVymjGaXCNlTbVekFJ">
    <mxGraphModel>
      <root>
        <mxCell id="0" />
        <mxCell id="1" parent="0" />
      </root>
    </mxGraphModel>
  </diagram>
</mxfile>
